<svg width="24" height="25" viewBox="0 0 24 25" fill="none" xmlns="http://www.w3.org/2000/svg">
<g clip-path="url(#clip0_2_468)">
<path d="M22.7 9.35206L21.5 8.89657C21.3462 8.42533 21.1559 7.96679 20.931 7.52512L21.467 6.34286C21.6325 5.97241 21.6822 5.56055 21.6098 5.16129C21.5373 4.76203 21.3461 4.394 21.061 4.10548L19.905 2.95225C19.616 2.67036 19.2488 2.48222 18.8513 2.4124C18.4539 2.34257 18.0446 2.3943 17.677 2.56084L16.5 3.09441C16.0585 2.86983 15.6005 2.6794 15.13 2.5248L14.68 1.33053C14.5402 0.946301 14.2859 0.614347 13.9514 0.379609C13.6169 0.14487 13.2185 0.0186848 12.81 0.0181351H11.19C10.7834 0.0181046 10.3865 0.142834 10.0529 0.375519C9.71924 0.608205 9.46486 0.937666 9.324 1.31952L8.869 2.5208C8.39849 2.6754 7.94049 2.86582 7.499 3.0904L6.319 2.55483C5.94895 2.3887 5.53735 2.33852 5.13828 2.41088C4.73921 2.48323 4.37134 2.67475 4.083 2.96026L2.932 4.1225C2.65082 4.41124 2.46303 4.77806 2.39311 5.17518C2.32319 5.5723 2.37438 5.98129 2.54 6.34887L3.073 7.52612C2.84675 7.96735 2.65517 8.42556 2.5 8.89657L1.308 9.34605C0.924261 9.48635 0.592919 9.74142 0.358929 10.0767C0.12494 10.4119 -0.000369022 10.8111 3.33112e-06 11.22V12.8418C-0.000741908 13.249 0.123573 13.6466 0.356107 13.9807C0.588641 14.3149 0.918153 14.5694 1.3 14.7098L2.506 15.1652C2.65983 15.6365 2.85007 16.095 3.075 16.5367L2.539 17.719C2.37353 18.0894 2.32376 18.5013 2.39621 18.9005C2.46866 19.2998 2.65996 19.6678 2.945 19.9563L4.1 21.1096C4.38895 21.3916 4.75615 21.5798 5.15363 21.6496C5.55112 21.7195 5.9604 21.6676 6.328 21.501L7.5 20.9674C7.94149 21.192 8.39949 21.3824 8.87 21.537L9.32 22.7313C9.45978 23.1155 9.71413 23.4475 10.0486 23.6822C10.3831 23.9169 10.7815 24.0431 11.19 24.0437H12.81C13.2166 24.0437 13.6135 23.919 13.9471 23.6863C14.2808 23.4536 14.5351 23.1241 14.676 22.7423L15.131 21.534C15.6015 21.3794 16.0595 21.189 16.501 20.9644L17.682 21.501C18.052 21.667 18.4635 21.7171 18.8624 21.6445C19.2614 21.572 19.629 21.3803 19.917 21.0945L21.068 19.9413C21.3501 19.6521 21.5384 19.2844 21.6084 18.8863C21.6783 18.4881 21.6266 18.0782 21.46 17.7099L20.927 16.5357C21.1519 16.094 21.3422 15.6355 21.496 15.1642L22.687 14.7148C23.0715 14.5753 23.4038 14.3208 23.6387 13.9857C23.8737 13.6506 23.9998 13.2512 24 12.8418V11.22C24.0007 10.8128 23.8764 10.4152 23.6439 10.0811C23.4114 9.74695 23.0819 9.49245 22.7 9.35206ZM22 12.8368L20.33 13.4674C19.438 13.8919 19.555 15.2694 18.95 15.9891C18.499 16.6348 19.358 17.741 19.65 18.5408L18.5 19.678L16.87 18.9373C15.896 18.6159 15.092 19.652 14.106 19.7541C13.342 19.8983 13.173 21.2557 12.806 22.0415H11.2L10.57 20.3698C10.144 19.4778 8.77 19.5919 8.049 18.9883C7.405 18.5388 6.306 19.3937 5.502 19.689L4.36 18.5378L5.1 16.9101C5.427 15.9511 4.385 15.1272 4.285 14.1432C4.141 13.3773 2.785 13.2082 1.999 12.8418L2 11.2301L3.67 10.5994C4.562 10.1749 4.445 8.79747 5.05 8.0777C5.5 7.42601 4.645 6.32484 4.357 5.52399L5.5 4.38378L7.13 5.12456C8.104 5.44591 8.908 4.4098 9.894 4.3077C10.658 4.16354 10.827 2.8061 11.194 2.02026H12.809C13.176 2.8031 13.352 4.16154 14.109 4.30469C15.095 4.4048 15.9 5.4439 16.873 5.12156L18.503 4.37677L19.64 5.52399L18.9 7.15172C18.573 8.11074 19.615 8.93462 19.715 9.91866C19.858 10.6825 21.215 10.8567 22.001 11.22L22 12.8368Z" fill="white" fill-opacity="0.8"/>
<path d="M12 6.02452C10.8133 6.02452 9.65328 6.37679 8.66658 7.03678C7.67989 7.69677 6.91085 8.63484 6.45673 9.73236C6.0026 10.8299 5.88378 12.0376 6.11529 13.2027C6.3468 14.3678 6.91825 15.4381 7.75736 16.2781C8.59648 17.1181 9.66558 17.6901 10.8295 17.9219C11.9933 18.1536 13.1997 18.0347 14.2961 17.5801C15.3925 17.1255 16.3295 16.3556 16.9888 15.3679C17.6481 14.3801 18 13.2189 18 12.0309C17.9984 10.4384 17.3658 8.91158 16.2409 7.78551C15.116 6.65944 13.5908 6.02611 12 6.02452ZM12 16.0352C11.2089 16.0352 10.4355 15.8003 9.77772 15.3603C9.11993 14.9203 8.60723 14.295 8.30448 13.5633C8.00173 12.8316 7.92252 12.0265 8.07686 11.2497C8.2312 10.473 8.61217 9.75947 9.17158 9.19947C9.73099 8.63946 10.4437 8.2581 11.2196 8.10359C11.9956 7.94908 12.7998 8.02838 13.5307 8.33146C14.2616 8.63453 14.8864 9.14776 15.3259 9.80626C15.7654 10.4648 16 11.2389 16 12.0309C16 13.0929 15.5786 14.1114 14.8284 14.8623C14.0783 15.6133 13.0609 16.0352 12 16.0352Z" fill="white" fill-opacity="0.8"/>
</g>
<defs>
<clipPath id="clip0_2_468">
<rect width="24" height="24.0255" fill="white" transform="translate(0 0.0181351)"/>
</clipPath>
</defs>
</svg>
