<svg width="24" height="25" viewBox="0 0 24 25" fill="none" xmlns="http://www.w3.org/2000/svg">
<g clip-path="url(#clip0_9_89)">
<path d="M3.00003 24.2041H21C21.2652 24.2041 21.5196 24.0986 21.7071 23.9109C21.8947 23.7232 22 23.4685 22 23.203V12.6067L22.292 12.8991C22.4795 13.0869 22.7339 13.1925 22.9992 13.1926C23.2644 13.1927 23.5189 13.0873 23.7065 12.8996C23.8942 12.7118 23.9996 12.4572 23.9997 12.1917C23.9998 11.9261 23.8945 11.6714 23.707 11.4835L12.707 0.471828C12.516 0.290963 12.263 0.190186 12 0.190186C11.7371 0.190186 11.4841 0.290963 11.293 0.471828L0.293031 11.4835C0.10556 11.6713 0.000244141 11.9259 0.000244141 12.1913C0.000244141 12.4567 0.10556 12.7113 0.293031 12.8991C0.483978 13.0801 0.737001 13.1811 1.00003 13.1811C1.26306 13.1811 1.51608 13.0801 1.70703 12.8991L2.00003 12.6057V23.203C2.00003 23.4685 2.10539 23.7232 2.29292 23.9109C2.48046 24.0986 2.73481 24.2041 3.00003 24.2041ZM14 22.202H10V18.1977C10 17.6667 10.2107 17.1574 10.5858 16.782C10.9609 16.4065 11.4696 16.1956 12 16.1956C12.5305 16.1956 13.0392 16.4065 13.4142 16.782C13.7893 17.1574 14 17.6667 14 18.1977V22.202ZM12 2.59509L20 10.6036V22.202H16V18.1977C16 17.1357 15.5786 16.1172 14.8285 15.3663C14.0783 14.6153 13.0609 14.1934 12 14.1934C10.9392 14.1934 9.92175 14.6153 9.1716 15.3663C8.42146 16.1172 8.00003 17.1357 8.00003 18.1977V22.202H4.00003V10.6036L12 2.59509Z" fill="#171717"/>
</g>
<defs>
<clipPath id="clip0_9_89">
<rect width="24" height="24.0255" fill="white" transform="translate(0 0.178772)"/>
</clipPath>
</defs>
</svg>
