<svg width="24" height="25" viewBox="0 0 24 25" fill="none" xmlns="http://www.w3.org/2000/svg">
<g clip-path="url(#clip0_9_96)">
<path d="M21 0.0245361H3C2.20435 0.0245361 1.44129 0.340943 0.87868 0.904151C0.31607 1.46736 0 2.23123 0 3.02773L0 21.0469C0 21.8434 0.31607 22.6073 0.87868 23.1705C1.44129 23.7337 2.20435 24.0501 3 24.0501H21C21.7956 24.0501 22.5587 23.7337 23.1213 23.1705C23.6839 22.6073 24 21.8434 24 21.0469V3.02773C24 2.23123 23.6839 1.46736 23.1213 0.904151C22.5587 0.340943 21.7956 0.0245361 21 0.0245361V0.0245361ZM3 2.02666H21C21.2652 2.02666 21.5196 2.13213 21.7071 2.31987C21.8946 2.50761 22 2.76223 22 3.02773V14.0394H2V3.02773C2 2.76223 2.10536 2.50761 2.29289 2.31987C2.48043 2.13213 2.73478 2.02666 3 2.02666ZM21 22.048H3C2.73478 22.048 2.48043 21.9425 2.29289 21.7547C2.10536 21.567 2 21.3124 2 21.0469V16.0416H22V21.0469C22 21.3124 21.8946 21.567 21.7071 21.7547C21.5196 21.9425 21.2652 22.048 21 22.048Z" fill="white" fill-opacity="0.8"/>
<path d="M9.513 11.8961C9.66451 11.9855 9.83715 12.0326 10.013 12.0326C10.1888 12.0326 10.3615 11.9855 10.513 11.8961L15.513 8.89295C15.6608 8.80395 15.7832 8.67817 15.8681 8.52784C15.953 8.37751 15.9977 8.20774 15.9977 8.03504C15.9977 7.86233 15.953 7.69256 15.8681 7.54223C15.7832 7.3919 15.6608 7.26612 15.513 7.17712L10.513 4.17393C10.3615 4.08327 10.1887 4.03439 10.0122 4.03224C9.83564 4.03009 9.6617 4.07476 9.50801 4.1617C9.35433 4.24864 9.22637 4.37476 9.13714 4.52724C9.04791 4.67972 9.0006 4.85313 9 5.02984V11.0362C9.0012 11.2123 9.04939 11.3849 9.13959 11.5361C9.22978 11.6873 9.3587 11.8116 9.513 11.8961ZM11 6.79772L13.057 8.03303L11 9.26835V6.79772Z" fill="white" fill-opacity="0.8"/>
<path d="M6.99999 18.0437H5C4.73478 18.0437 4.48043 18.1492 4.29289 18.3369C4.10536 18.5246 4 18.7793 4 19.0448C4 19.3103 4.10536 19.5649 4.29289 19.7526C4.48043 19.9404 4.73478 20.0458 5 20.0458H6.99999C7.26521 20.0458 7.51956 19.9404 7.7071 19.7526C7.89464 19.5649 7.99999 19.3103 7.99999 19.0448C7.99999 18.7793 7.89464 18.5246 7.7071 18.3369C7.51956 18.1492 7.26521 18.0437 6.99999 18.0437Z" fill="white" fill-opacity="0.8"/>
<path d="M19 18.0437H11C10.7348 18.0437 10.4804 18.1492 10.2929 18.3369C10.1054 18.5246 10 18.7793 10 19.0448C10 19.3103 10.1054 19.5649 10.2929 19.7526C10.4804 19.9404 10.7348 20.0458 11 20.0458H19C19.2652 20.0458 19.5196 19.9404 19.7071 19.7526C19.8946 19.5649 20 19.3103 20 19.0448C20 18.7793 19.8946 18.5246 19.7071 18.3369C19.5196 18.1492 19.2652 18.0437 19 18.0437Z" fill="white" fill-opacity="0.8"/>
</g>
<defs>
<clipPath id="clip0_9_96">
<rect width="24" height="24.0255" fill="white" transform="translate(0 0.0245361)"/>
</clipPath>
</defs>
</svg>
