<svg width="24" height="25" viewBox="0 0 24 25" fill="none" xmlns="http://www.w3.org/2000/svg">
<g clip-path="url(#clip0_2_497)">
<path fill-rule="evenodd" clip-rule="evenodd" d="M4.20911 4.28538C4.86613 4.42617 5.28463 5.07294 5.14383 5.72996L2.72168 17.0333H19.1783L16.7562 5.72996C16.6154 5.07294 17.0339 4.42617 17.6909 4.28538C18.3479 4.14458 18.9947 4.56308 19.1355 5.22011L21.873 17.9951C21.95 18.3544 21.8605 18.7293 21.6295 19.0149C21.3985 19.3007 21.0508 19.4667 20.6833 19.4667H1.21668C0.849256 19.4667 0.501508 19.3007 0.270512 19.0149C0.0395275 18.7293 -0.0499708 18.3544 0.0270199 17.9951L2.76452 5.22011C2.90531 4.56308 3.55207 4.14458 4.20911 4.28538Z" fill="#D1D1D1"/>
<path fill-rule="evenodd" clip-rule="evenodd" d="M0 18.2501C0 17.5781 0.544726 17.0334 1.21667 17.0334H20.6833C21.3553 17.0334 21.9 17.5781 21.9 18.2501V20.6834C21.9 22.6993 20.2659 24.3334 18.25 24.3334H3.65C1.63417 24.3334 0 22.6993 0 20.6834V18.2501ZM2.43333 19.4667V20.6834C2.43333 21.3554 2.97806 21.9001 3.65 21.9001H18.25C18.922 21.9001 19.4667 21.3554 19.4667 20.6834V19.4667H2.43333Z" fill="#D1D1D1"/>
<path fill-rule="evenodd" clip-rule="evenodd" d="M10.95 0C11.622 0 12.1667 0.544726 12.1667 1.21667V8.51667C12.1667 9.18861 11.622 9.73334 10.95 9.73334C10.278 9.73334 9.73334 9.18861 9.73334 8.51667V1.21667C9.73334 0.544726 10.278 0 10.95 0Z" fill="#D1D1D1"/>
<path fill-rule="evenodd" clip-rule="evenodd" d="M7.65634 6.43972C8.13148 5.96459 8.90185 5.96459 9.37696 6.43972L10.95 8.01275L12.523 6.43972C12.9981 5.96459 13.7685 5.96459 14.2436 6.43972C14.7187 6.91487 14.7187 7.68521 14.2436 8.16036L11.8103 10.5937C11.3352 11.0688 10.5648 11.0688 10.0897 10.5937L7.65634 8.16036C7.1812 7.68521 7.1812 6.91487 7.65634 6.43972Z" fill="#D1D1D1"/>
</g>
<defs>
<clipPath id="clip0_2_497">
<rect width="24" height="24.0255" fill="white" transform="translate(0 0.0233154)"/>
</clipPath>
</defs>
</svg>
