<svg width="191" height="51" viewBox="0 0 191 51" fill="none" xmlns="http://www.w3.org/2000/svg">
<g clip-path="url(#clip0_42_2)">
<path d="M93.9496 11.3057C93.8931 11.3057 93.8373 11.3057 93.7808 11.3057C93.6631 11.308 93.5447 11.3127 93.4263 11.3174C93.3308 11.3213 93.2345 11.3267 93.1382 11.3322C93.0381 11.3384 92.9388 11.3454 92.8387 11.354C92.7134 11.3649 92.5874 11.3782 92.4613 11.3922C92.3834 11.4008 92.3062 11.4086 92.2283 11.4187C92.0205 11.446 91.8127 11.4764 91.6041 11.513C91.4101 11.5473 91.2168 11.5855 91.0258 11.6292C85.0925 12.9629 80.5804 18.4818 80.5429 24.7154C80.4925 33.0623 80.5269 41.41 80.5254 49.7568C80.5254 49.8605 80.5254 49.965 80.5254 50.0967H85.4318V49.4684C85.4318 41.4715 85.4279 33.4747 85.4386 25.4778C85.4394 24.7809 85.4684 24.0708 85.596 23.3887C85.6457 23.1252 85.7083 22.8672 85.7801 22.6131C85.8054 22.5258 85.8367 22.4424 85.8642 22.3559C85.9161 22.1922 85.9681 22.0285 86.0292 21.8695C86.0682 21.7674 86.114 21.6691 86.1568 21.5694C86.2156 21.4322 86.2737 21.295 86.3394 21.1617C86.3921 21.0549 86.4494 20.9512 86.5059 20.8468C86.5701 20.7275 86.6351 20.6082 86.7046 20.4929C86.7703 20.3837 86.8398 20.2785 86.9101 20.1725C86.9789 20.0688 87.0476 19.9667 87.1202 19.8662C87.1997 19.7562 87.2822 19.6495 87.367 19.5442C87.4365 19.4569 87.5083 19.3704 87.5809 19.2862C87.6756 19.1763 87.7727 19.0687 87.872 18.9643C87.94 18.8933 88.0095 18.824 88.079 18.7554C88.1906 18.6455 88.3036 18.5379 88.4213 18.4342C88.4816 18.3804 88.5443 18.3298 88.6062 18.2783C88.7384 18.1676 88.872 18.0585 89.0111 17.9564C89.0554 17.9236 89.102 17.8932 89.1463 17.8613C89.3068 17.7475 89.4687 17.636 89.6361 17.5331C89.6437 17.5284 89.6521 17.5238 89.6597 17.5191C90.876 16.7793 92.2696 16.3413 93.7212 16.2953C94.0619 16.2844 94.4049 16.2875 94.751 16.3218C99.2495 16.763 102.651 20.5326 102.645 25.0732C102.639 30.7254 97.4105 34.9284 92.0312 33.6064C91.8944 33.5729 91.7546 33.5526 91.572 33.5175C91.572 35.1802 91.5659 36.7782 91.5865 38.3754C91.5881 38.479 91.7852 38.6482 91.9112 38.6716C93.3346 38.9304 94.7594 38.9 96.1881 38.6825C103.677 37.5436 108.869 29.8773 107.268 22.3083C105.87 15.6896 100.33 11.2667 93.9481 11.3041L93.9496 11.3057Z" fill="url(#paint0_linear_42_2)"/>
<path d="M129.922 11.4616C128.494 11.2441 127.069 11.2145 125.646 11.4725C125.52 11.4951 125.322 11.6651 125.321 11.7687C125.3 13.3659 125.306 14.9631 125.306 16.6266C125.489 16.5915 125.629 16.5712 125.766 16.5377C131.145 15.2157 136.373 19.418 136.38 25.0709C136.385 29.6107 132.984 33.3811 128.485 33.8223C128.139 33.8559 127.796 33.859 127.456 33.8488C126.004 33.8036 124.61 33.3655 123.394 32.625C123.386 32.6203 123.378 32.6164 123.37 32.611C123.203 32.5081 123.041 32.3966 122.881 32.2828C122.836 32.2509 122.79 32.2205 122.745 32.1877C122.607 32.0856 122.473 31.9765 122.341 31.8658C122.279 31.8143 122.216 31.7629 122.156 31.7099C122.039 31.6062 121.925 31.4986 121.813 31.3887C121.743 31.3201 121.674 31.2508 121.606 31.1798C121.506 31.0754 121.41 30.9678 121.315 30.8579C121.242 30.7729 121.171 30.6872 121.101 30.5999C121.017 30.4946 120.935 30.3871 120.855 30.2779C120.782 30.1782 120.712 30.0753 120.644 29.9716C120.574 29.8664 120.505 29.7604 120.439 29.6512C120.369 29.5359 120.304 29.4166 120.24 29.2973C120.184 29.1929 120.126 29.09 120.074 28.9824C120.009 28.8491 119.95 28.7119 119.891 28.5747C119.848 28.475 119.803 28.3768 119.764 28.2746C119.702 28.1156 119.651 27.9519 119.599 27.7882C119.571 27.7025 119.539 27.6183 119.515 27.531C119.443 27.2769 119.38 27.0189 119.33 26.7554C119.202 26.0733 119.174 25.3632 119.173 24.6663C119.162 16.6694 119.166 8.67256 119.166 0.675673V0.0458374H114.26V0.385699C114.261 8.73258 114.227 17.0802 114.277 25.4271C114.315 31.6608 118.828 37.1804 124.76 38.5134C124.952 38.5562 125.144 38.5952 125.338 38.6295C125.547 38.6661 125.756 38.6965 125.963 38.7238C126.041 38.734 126.118 38.7418 126.196 38.7503C126.322 38.7644 126.448 38.7776 126.573 38.7885C126.673 38.7971 126.773 38.8041 126.873 38.8103C126.969 38.8166 127.064 38.8213 127.161 38.8252C127.279 38.8306 127.397 38.8353 127.515 38.8369C127.572 38.8376 127.627 38.8369 127.684 38.8369C134.065 38.8743 139.605 34.4514 141.004 27.8327C142.604 20.2637 137.413 12.5973 129.923 11.4585L129.922 11.4616Z" fill="url(#paint1_linear_42_2)"/>
<path d="M158.158 11.2769C150.726 11.2745 144.647 17.4692 144.637 25.0553C144.627 32.6437 150.687 38.8439 158.128 38.8579C165.585 38.8719 171.676 32.6702 171.674 25.0646C171.673 17.4863 165.588 11.28 158.158 11.2776V11.2769ZM158.152 33.8426C153.448 33.8535 149.57 29.9381 149.553 25.1613C149.536 20.2481 153.367 16.2953 158.154 16.2859C162.858 16.2766 166.764 20.245 166.76 25.0272C166.755 29.9225 162.938 33.8317 158.153 33.8426H158.152Z" fill="url(#paint2_linear_42_2)"/>
<path d="M74.3914 16.7279C71.916 13.4244 68.0212 11.2784 63.6564 11.2769C60.042 11.2753 56.7491 12.7431 54.3173 15.1214C55.3693 16.5253 56.2029 18.1061 56.7697 19.8124C58.3344 17.6727 60.8258 16.2922 63.6511 16.2867C63.6564 16.2867 63.6618 16.2867 63.6671 16.2867C67.0478 16.2867 70.0122 18.3415 71.4072 21.2747C71.4095 21.2794 71.411 21.2841 71.4133 21.288C71.5027 21.4774 71.586 21.6707 71.6624 21.8672C72.0436 22.8493 72.2576 23.9118 72.256 25.021C72.2514 29.9163 68.4345 33.8255 63.6496 33.8364C60.8495 33.8426 58.3428 32.4582 56.7682 30.3294C55.6971 28.8811 55.0569 27.089 55.05 25.1551C55.05 25.127 55.053 25.0997 55.053 25.0717C55.0515 25.0717 55.05 25.0717 55.0485 25.0717C55.0485 25.067 55.0485 25.0623 55.0485 25.0584C55.0485 22.1283 54.1347 19.4055 52.5899 17.1652C52.0803 16.427 51.5027 15.7419 50.8656 15.119C48.4337 12.7423 45.144 11.273 41.5333 11.2714C34.1011 11.2691 28.022 17.4638 28.012 25.0499C28.012 25.2338 28.0174 25.417 28.025 25.5994C28.0327 25.7927 28.0449 25.9853 28.0602 26.177C28.0632 26.2191 28.0655 26.262 28.0693 26.3041C28.0709 26.3189 28.0709 26.3337 28.0724 26.3485H28.0739C28.7073 33.3359 34.4892 38.8454 41.5027 38.8587C45.1294 38.8657 48.4307 37.3995 50.8678 35.0189C49.8166 33.6166 48.9831 32.0373 48.4154 30.3325C46.8515 32.4652 44.3593 33.8372 41.5279 33.8442C37.1265 33.8543 33.4555 30.4253 32.9864 26.0718C32.9536 25.7701 32.9299 25.4661 32.9284 25.1567C32.9108 20.2435 36.7415 16.2906 41.5287 16.2813C41.5341 16.2813 41.5394 16.2813 41.5448 16.2813C44.3318 16.2813 46.8377 17.6774 48.4139 19.8108C49.4926 21.2724 50.1359 23.0801 50.1336 25.0218C50.1336 25.046 50.1306 25.0693 50.1306 25.0935C50.1321 25.0935 50.1329 25.0935 50.1344 25.0935C50.1344 25.0787 50.1344 25.0647 50.1344 25.0499C50.1306 27.9925 51.0428 30.7238 52.5907 32.9688C53.0987 33.7062 53.6755 34.3898 54.312 35.0119C56.7361 37.3808 60.0167 38.8454 63.6251 38.8525C71.0825 38.8665 77.1731 32.6648 77.1716 25.0592C77.1716 21.9334 76.1333 19.043 74.396 16.7232C74.3945 16.7256 74.3929 16.7279 74.3914 16.7303V16.7279Z" fill="url(#paint3_linear_42_2)"/>
<path d="M24.0652 33.7803C19.2581 33.7803 14.4518 33.7826 9.64472 33.7803C9.34676 33.7803 9.04727 33.7686 8.75084 33.7397C6.53371 33.5222 5.08822 31.8946 5.08822 29.6232V1.12079H0.0236659C0.0236659 1.32112 0.0236659 1.49963 0.0236659 1.67813C0.0190819 7.8011 0.00991388 13.9233 0.0114419 20.0463C0.0122059 23.3817 -0.0374541 26.7196 0.0618659 30.0519C0.155074 33.1691 1.66245 35.538 4.19663 37.2288C5.89424 38.3606 7.7966 38.8322 9.80363 38.84C14.655 38.8587 19.5064 38.8493 24.3578 38.8493C24.4571 38.8493 24.5565 38.8275 24.6688 38.8143V33.7803C24.4472 33.7803 24.2562 33.7803 24.0645 33.7803H24.0652Z" fill="url(#paint4_linear_42_2)"/>
<path d="M190.993 35.0532V33.5308C190.837 33.5503 190.734 33.5518 190.638 33.5776C189.524 33.8738 188.402 33.9011 187.265 33.7452C183.765 33.2658 180.612 30.3255 180.148 26.7569C179.865 24.5845 180.002 22.3543 179.953 20.1507C179.953 20.1265 179.982 20.1016 180.029 20.0267H187.283V15.0481H179.933V3.7851H175.022V4.21148C175.022 11.1412 175.008 18.071 175.038 25.0015C175.043 26.0585 175.166 27.135 175.389 28.1678C176.895 35.1467 183.756 39.8736 190.6 38.7028C190.936 38.6451 191.004 38.5165 191 38.2062C190.984 37.1555 190.994 36.1047 190.994 35.0539L190.993 35.0532Z" fill="url(#paint5_linear_42_2)"/>
</g>
<defs>
<linearGradient id="paint0_linear_42_2" x1="-0.0201217" y1="30.702" x2="189.345" y2="30.702" gradientUnits="userSpaceOnUse">
<stop stop-color="#E31C79"/>
<stop offset="1" stop-color="#2AD2C9"/>
</linearGradient>
<linearGradient id="paint1_linear_42_2" x1="-0.0201467" y1="19.4429" x2="189.345" y2="19.4429" gradientUnits="userSpaceOnUse">
<stop stop-color="#E31C79"/>
<stop offset="1" stop-color="#2AD2C9"/>
</linearGradient>
<linearGradient id="paint2_linear_42_2" x1="-0.0201252" y1="25.067" x2="189.345" y2="25.067" gradientUnits="userSpaceOnUse">
<stop stop-color="#E31C79"/>
<stop offset="1" stop-color="#2AD2C9"/>
</linearGradient>
<linearGradient id="paint3_linear_42_2" x1="-0.0191359" y1="25.0639" x2="189.346" y2="25.0639" gradientUnits="userSpaceOnUse">
<stop stop-color="#E31C79"/>
<stop offset="1" stop-color="#2AD2C9"/>
</linearGradient>
<linearGradient id="paint4_linear_42_2" x1="-1.81191e-05" y1="19.9862" x2="189.365" y2="19.9862" gradientUnits="userSpaceOnUse">
<stop stop-color="#E31C79"/>
<stop offset="1" stop-color="#2AD2C9"/>
</linearGradient>
<linearGradient id="paint5_linear_42_2" x1="-0.0201754" y1="21.3332" x2="189.345" y2="21.3332" gradientUnits="userSpaceOnUse">
<stop stop-color="#E31C79"/>
<stop offset="1" stop-color="#2AD2C9"/>
</linearGradient>
<clipPath id="clip0_42_2">
<rect width="191" height="50.0532" fill="white" transform="translate(0 0.0458374)"/>
</clipPath>
</defs>
</svg>
