<svg width="24" height="25" viewBox="0 0 24 25" fill="none" xmlns="http://www.w3.org/2000/svg">
<g clip-path="url(#clip0_9_73)">
<path fill-rule="evenodd" clip-rule="evenodd" d="M23.9998 4.87859C23.9998 2.22499 21.8506 0.0735245 19.1998 0.0735245C15.2039 0.0735245 8.79472 0.0735245 4.79995 0.0735245C2.14798 0.0735245 0 2.22499 0 4.87859V22.8976C0 23.3841 0.291598 23.8213 0.740394 24.0075C1.18919 24.1937 1.70518 24.0904 2.04838 23.7469C2.04838 23.7469 4.37996 21.4128 5.79354 19.9977C6.24354 19.5472 6.85434 19.2938 7.49033 19.2938H19.1998C21.8506 19.2938 23.9998 17.1435 23.9998 14.4887V4.87859ZM21.5998 4.87859C21.5998 3.55239 20.5246 2.47606 19.1998 2.47606C15.2039 2.47606 8.79472 2.47606 4.79995 2.47606C3.47397 2.47606 2.39998 3.55239 2.39998 4.87859V19.9977L4.09676 18.2991C4.99675 17.3982 6.21714 16.8912 7.49033 16.8912H19.1998C20.5246 16.8912 21.5998 15.8161 21.5998 14.4887V4.87859ZM13.1999 13.2874V9.68365C13.1999 9.02055 12.6611 8.48239 11.9999 8.48239C11.3375 8.48239 10.7999 9.02055 10.7999 9.68365V13.2874C10.7999 13.9505 11.3375 14.4887 11.9999 14.4887C12.6611 14.4887 13.1999 13.9505 13.1999 13.2874ZM11.9999 4.87859C12.6611 4.87859 13.1999 5.41675 13.1999 6.07985C13.1999 6.74295 12.6611 7.28112 11.9999 7.28112C11.3375 7.28112 10.7999 6.74295 10.7999 6.07985C10.7999 5.41675 11.3375 4.87859 11.9999 4.87859Z" fill="white" fill-opacity="0.8"/>
</g>
<defs>
<clipPath id="clip0_9_73">
<rect width="24" height="24.0255" fill="white" transform="translate(0 0.0735245)"/>
</clipPath>
</defs>
</svg>
