<svg width="24" height="25" viewBox="0 0 24 25" fill="none" xmlns="http://www.w3.org/2000/svg">
<g clip-path="url(#clip0_9_86)">
<path d="M12 24.1587C14.5252 24.1562 16.9727 23.2841 18.9315 21.6887C20.8903 20.0933 22.2411 17.8718 22.7572 15.3972C23.2732 12.9227 22.923 10.3457 21.7654 8.09905C20.6078 5.8524 18.7133 4.07286 16.4 3.05924C16.2795 3.00584 16.1496 2.9768 16.0179 2.9738C15.8862 2.9708 15.7552 2.99388 15.6324 3.04174C15.5096 3.08959 15.3975 3.16126 15.3024 3.25263C15.2074 3.34401 15.1313 3.45328 15.0786 3.57417C15.0259 3.69507 14.9976 3.8252 14.9953 3.95708C14.993 4.08897 15.0167 4.22001 15.0652 4.34267C15.1136 4.46534 15.1858 4.57721 15.2776 4.67186C15.3694 4.76651 15.4789 4.84207 15.6 4.89419C17.495 5.72214 19.0475 7.17804 19.9963 9.01708C20.9452 10.8561 21.2326 12.9661 20.8101 14.9923C20.3877 17.0186 19.2812 18.8374 17.6767 20.1429C16.0722 21.4485 14.0676 22.1612 12 22.1612C9.93231 22.1612 7.9277 21.4485 6.32322 20.1429C4.71875 18.8374 3.61226 17.0186 3.18981 14.9923C2.76737 12.9661 3.05474 10.8561 4.00359 9.01708C4.95245 7.17804 6.50493 5.72214 8.39997 4.89419C8.52101 4.84207 8.63057 4.76651 8.72234 4.67186C8.81412 4.57721 8.88631 4.46534 8.93475 4.34267C8.9832 4.22001 9.00695 4.08897 9.00465 3.95708C9.00234 3.8252 8.97402 3.69507 8.92131 3.57417C8.86861 3.45328 8.79255 3.34401 8.69752 3.25263C8.60249 3.16126 8.49036 3.08959 8.36757 3.04174C8.24478 2.99388 8.11376 2.9708 7.98203 2.9738C7.8503 2.9768 7.72046 3.00584 7.59997 3.05924C5.28663 4.07286 3.39211 5.8524 2.23451 8.09905C1.07691 10.3457 0.726727 12.9227 1.24277 15.3972C1.7588 17.8718 3.10963 20.0933 5.06844 21.6887C7.02725 23.2841 9.47474 24.1562 12 24.1587Z" fill="white" fill-opacity="0.8"/>
<path d="M12 10.1438C12.2652 10.1438 12.5196 10.0383 12.7071 9.85056C12.8947 9.66282 13 9.4082 13 9.1427V1.13418C13 0.868683 12.8947 0.614059 12.7071 0.426323C12.5196 0.238587 12.2652 0.133118 12 0.133118C11.7348 0.133118 11.4804 0.238587 11.2929 0.426323C11.1054 0.614059 11 0.868683 11 1.13418V9.1427C11 9.4082 11.1054 9.66282 11.2929 9.85056C11.4804 10.0383 11.7348 10.1438 12 10.1438Z" fill="white" fill-opacity="0.8"/>
</g>
<defs>
<clipPath id="clip0_9_86">
<rect width="24" height="24.0255" fill="white" transform="translate(0 0.133118)"/>
</clipPath>
</defs>
</svg>
