<svg width="36" height="36" viewBox="0 0 36 36" fill="none" xmlns="http://www.w3.org/2000/svg">
<g clip-path="url(#clip0_359_614)">
<path d="M20.2698 27.2278C23.6467 26.4405 26.3651 23.7625 27.1952 20.4053C28.0279 17.0374 27.0749 13.6046 24.6457 11.2224C23.7865 10.3797 23.2735 9.02911 23.2735 7.60943L23.2735 7.38281C23.2735 6.44794 22.8656 5.60672 22.2188 5.02699L22.2188 3.16406C22.2188 1.4194 20.7994 1.32239e-06 19.0547 1.16987e-06L16.9453 9.85462e-07C15.2007 8.32939e-07 13.7813 1.4194 13.7813 3.16406L13.7813 5.02699C13.1345 5.60672 12.7266 6.44787 12.7266 7.38281L12.7266 7.61358C12.7266 9.01167 12.1861 10.388 11.2807 11.2952C9.49263 13.0873 8.50783 15.4684 8.50783 18C8.50783 24.0524 14.1166 28.662 20.2698 27.2278ZM15.8906 3.16406C15.8906 2.58251 16.3638 2.10938 16.9453 2.10938L19.0547 2.10938C19.6363 2.10938 20.1094 2.58251 20.1094 3.16406L20.1094 4.21875L15.8906 4.21875L15.8906 3.16406ZM12.774 12.7852C14.0844 11.472 14.836 9.58704 14.836 7.61358L14.836 7.38281C14.836 6.80126 15.3091 6.32813 15.8906 6.32813L20.1094 6.32813C20.6909 6.32813 21.1641 6.80126 21.1641 7.38281L21.1641 7.60943C21.1641 9.61327 21.8948 11.4791 23.1689 12.7285C25.0596 14.5826 25.7992 17.2631 25.1476 19.899C24.506 22.494 22.4033 24.5644 19.7909 25.1735C14.9624 26.2994 10.6172 22.6949 10.6172 18C10.6172 16.031 11.3832 14.179 12.774 12.7852Z" fill="#777777"/>
<path d="M26.2035 27.6951L29.1866 30.6782C29.5984 31.0901 30.2663 31.0901 30.6781 30.6782C31.09 30.2663 31.09 29.5986 30.6781 29.1867L27.695 26.2036C27.2832 25.7917 26.6153 25.7917 26.2035 26.2036C25.7916 26.6155 25.7916 27.2832 26.2035 27.6951Z" fill="#777777"/>
<path d="M30.6562 19.0547L34.9453 19.0547C35.5278 19.0547 36 18.5825 36 18C36 17.4175 35.5278 16.9453 34.9453 16.9453L30.6562 16.9453C30.0738 16.9453 29.6016 17.4175 29.6016 18C29.6016 18.5825 30.0738 19.0547 30.6562 19.0547Z" fill="#777777"/>
<path d="M1.05469 19.0547L5.34375 19.0547C5.92622 19.0547 6.39844 18.5825 6.39844 18C6.39844 17.4175 5.92622 16.9453 5.34375 16.9453L1.05469 16.9453C0.472218 16.9453 -3.33712e-07 17.4175 -3.84633e-07 18C-4.35554e-07 18.5825 0.472218 19.0547 1.05469 19.0547Z" fill="#777777"/>
<path d="M5.32162 30.6782C5.73337 31.0901 6.4012 31.0901 6.81316 30.6782L9.79631 27.6951C10.2082 27.2833 10.2082 26.6155 9.79631 26.2036C9.38449 25.7917 8.71666 25.7917 8.30477 26.2036L5.32162 29.1867C4.90973 29.5985 4.90973 30.2663 5.32162 30.6782Z" fill="#777777"/>
<path d="M18 36C18.5825 36 19.0547 35.5278 19.0547 34.9453L19.0547 30.6563C19.0547 30.0738 18.5825 29.6016 18 29.6016C17.4175 29.6016 16.9453 30.0738 16.9453 30.6563L16.9453 34.9453C16.9453 35.5278 17.4175 36 18 36Z" fill="#777777"/>
<path d="M18.0001 23.2734C18.4336 23.2734 18.8753 23.2215 19.312 23.1192C21.1306 22.6947 22.6531 21.1977 23.1003 19.3941C23.2405 18.8287 22.8959 18.2568 22.3306 18.1165C21.7652 17.9763 21.1932 18.321 21.053 18.8863C20.7956 19.924 19.8826 20.8199 18.8317 21.0652C18.5517 21.1308 18.2718 21.1641 18.0001 21.1641C17.4176 21.1641 16.9454 21.6363 16.9454 22.2187C16.9454 22.8012 17.4176 23.2734 18.0001 23.2734Z" fill="#777777"/>
</g>
<defs>
<clipPath id="clip0_359_614">
<rect width="36" height="36" fill="white" transform="translate(36 36) rotate(-180)"/>
</clipPath>
</defs>
</svg>
