<svg width="24" height="24" viewBox="0 0 24 24" fill="none" xmlns="http://www.w3.org/2000/svg">
<g clip-path="url(#clip0_359_651)">
<path d="M11.9802 2.19604e-06C18.6217 -0.00395856 23.9953 5.35026 24 11.9759C24.0047 18.626 18.6479 23.9982 12.0104 24C5.37186 24.0018 0.00108037 18.6422 1.63441e-07 12.0151C-0.00108004 5.37294 5.35242 0.00396295 11.9802 2.19604e-06ZM11.9892 0.901974C5.87092 0.900533 0.908453 5.85796 0.901612 11.9788C0.89441 18.1237 5.84607 23.0926 11.9831 23.0984C18.1363 23.1045 23.0955 18.15 23.098 11.9946C23.1006 5.85832 18.1384 0.903414 11.9896 0.901974H11.9892Z" fill="white"/>
<path d="M18.9238 12.3287C19.2248 12.3431 19.6389 12.287 20.0515 12.3518C21.1126 12.5178 21.7067 13.2962 21.5955 14.3678C21.4893 15.3918 21.0399 16.2679 20.4422 17.0813C20.2323 17.3672 19.991 17.6257 19.7336 17.8698C18.8053 18.7509 17.7374 18.9212 16.5545 18.4949C15.8034 18.2245 15.1661 17.7686 14.5727 17.2469C13.8713 16.6305 13.2624 15.929 12.6953 15.1898C12.6316 15.1067 12.5787 15.0678 12.4606 15.0865C11.8589 15.1823 11.2766 15.0991 10.7236 14.8445C10.6141 14.7941 10.5558 14.8186 10.4787 14.8982C9.51699 15.8909 8.70288 16.9912 8.04647 18.2079C7.89776 18.4834 7.73465 18.7469 7.51537 18.9738C6.9533 19.5553 6.22092 19.6846 5.49251 19.3259C5.12128 19.143 4.80478 18.887 4.53076 18.5813C3.71017 17.6667 3.17835 16.6099 2.98751 15.39C2.85356 14.5349 3.09481 13.7877 3.65076 13.1371C4.18222 12.5149 4.86923 12.1184 5.61457 11.8117C6.61376 11.4008 7.66192 11.1805 8.72628 11.0278C8.73816 11.026 8.75004 11.0238 8.76193 11.0242C8.96537 11.031 9.06979 10.9378 9.14828 10.7415C9.35604 10.2238 9.70423 9.80464 10.1579 9.48022C10.2667 9.40245 10.28 9.33511 10.245 9.21341C9.86698 7.89124 9.32183 6.64324 8.60062 5.4723C8.37881 5.11223 8.1905 4.74136 8.13865 4.31324C8.06375 3.69248 8.287 3.19595 8.76481 2.80959C9.20625 2.45241 9.73051 2.28425 10.2793 2.18992C11.3393 2.00736 12.3824 2.08154 13.4018 2.43116C14.5385 2.82112 15.1409 3.65648 15.3458 4.80653C15.5244 5.80896 15.3649 6.78979 15.1146 7.76018C14.9349 8.45763 14.6951 9.13528 14.4143 9.79816C14.3693 9.90438 14.3754 9.97676 14.4514 10.0715C14.8276 10.5421 15.0476 11.0804 15.1013 11.6817C15.1117 11.7998 15.16 11.8401 15.2698 11.8678C16.4321 12.1617 17.6124 12.314 18.9231 12.3284L18.9238 12.3287ZM17.8414 17.8122C18.2098 17.8356 18.613 17.6419 18.9699 17.3351C19.7001 16.7072 20.2153 15.9308 20.538 15.0256C20.6413 14.7358 20.7083 14.4369 20.7036 14.1283C20.696 13.6059 20.4724 13.3502 19.9604 13.2501C19.7995 13.2188 19.6382 13.2167 19.4765 13.2217C18.0232 13.2671 16.5898 13.1212 15.1783 12.7712C15.0797 12.7468 15.0289 12.7554 14.9969 12.8649C14.7664 13.6541 14.2922 14.2587 13.5922 14.6861C13.522 14.7289 13.4965 14.7559 13.558 14.8323C14.2584 15.7062 15.0034 16.5354 15.9399 17.1655C16.4782 17.5278 17.0557 17.7985 17.8414 17.8122ZM11.3605 2.99791C11.0476 2.99251 10.7365 3.01915 10.4298 3.07641C10.0265 3.15166 9.63653 3.26436 9.30851 3.52901C9.08383 3.71049 8.99309 3.94165 9.03774 4.22898C9.07447 4.46519 9.17133 4.67583 9.29591 4.87531C10.0708 6.11862 10.6685 7.44151 11.0746 8.84938C11.1081 8.96496 11.1488 8.99665 11.2716 8.96676C12.0508 8.77773 12.7958 8.88035 13.4979 9.26418C13.6189 9.33043 13.6506 9.29911 13.6938 9.18677C13.9451 8.5318 14.1738 7.86964 14.3261 7.18371C14.4921 6.4362 14.5936 5.68366 14.4478 4.91923C14.2875 4.07812 13.8396 3.49228 12.9902 3.24204C12.4562 3.08469 11.915 3.00439 11.3605 2.99755V2.99791ZM3.85455 14.9479C3.85816 15.0217 3.86032 15.0937 3.86572 15.1653C3.8686 15.2071 3.87544 15.2485 3.88264 15.2899C4.04971 16.2852 4.48323 17.1544 5.14 17.9137C5.37656 18.1874 5.64878 18.4207 5.99156 18.5601C6.29078 18.6818 6.55363 18.6263 6.79199 18.4186C6.96663 18.2663 7.08797 18.0743 7.20103 17.8756C7.37602 17.5684 7.54526 17.2581 7.73069 16.957C8.30464 16.0245 8.97617 15.1671 9.73159 14.3746C9.78236 14.3213 9.87238 14.2839 9.76904 14.1791C9.18825 13.5875 8.90163 12.8681 8.87535 12.0435C8.87247 11.9489 8.84834 11.9172 8.75077 11.933C7.88048 12.0731 7.0174 12.2445 6.1896 12.557C5.5458 12.7997 4.93512 13.1025 4.45011 13.6066C4.09076 13.98 3.84447 14.4096 3.85491 14.9482L3.85455 14.9479ZM14.2242 12.0057C14.2285 10.7891 13.2225 9.778 12.0047 9.77548C10.7826 9.77332 9.77912 10.7714 9.77516 11.9931C9.7712 13.2105 10.7747 14.2194 11.9939 14.2241C13.2117 14.2284 14.2195 13.226 14.2242 12.0057Z" fill="white"/>
<path d="M21.3881 11.2478C21.3909 11.492 21.2131 11.694 20.9776 11.7138C20.7266 11.735 20.5181 11.574 20.4919 11.3141C20.4191 10.6015 20.2852 9.90261 20.0515 9.22496C19.6911 8.18112 19.1506 7.24063 18.424 6.40815C18.361 6.33577 18.2951 6.26556 18.2674 6.16978C18.209 5.96886 18.2875 5.76038 18.4622 5.65344C18.6451 5.54146 18.8672 5.56451 19.0217 5.72618C19.2205 5.93466 19.3987 6.16114 19.5697 6.39338C20.6272 7.82934 21.2221 9.43956 21.3852 11.2122C21.3863 11.2241 21.3873 11.2359 21.3881 11.2482V11.2478Z" fill="white"/>
<path d="M3.48048 9.62897C3.16722 9.62645 2.96594 9.33947 3.06604 9.02405C3.2792 8.35253 3.57806 7.71917 3.94353 7.11749C4.6291 5.9894 5.51631 5.04854 6.59543 4.28951C6.90041 4.07491 7.25219 4.19194 7.33573 4.53004C7.38182 4.71656 7.30981 4.88651 7.11933 5.02153C6.44456 5.50006 5.84505 6.05781 5.32979 6.70521C4.71551 7.47756 4.24994 8.33056 3.93344 9.26566C3.84955 9.51375 3.70156 9.63041 3.48048 9.62897Z" fill="white"/>
<path d="M12.1091 21.4216C10.613 21.414 9.29519 21.1213 8.03963 20.5444C7.87544 20.4688 7.75554 20.363 7.72349 20.1819C7.69289 20.0079 7.75158 19.8592 7.8902 19.7512C8.04215 19.6331 8.21138 19.6288 8.38242 19.708C8.92792 19.9608 9.49215 20.1588 10.078 20.2949C11.2457 20.5661 12.4177 20.592 13.5951 20.3659C13.6772 20.35 13.7615 20.3306 13.8439 20.3338C14.0625 20.3432 14.2389 20.5167 14.2638 20.7331C14.2893 20.9556 14.1507 21.1627 13.9228 21.2171C13.5314 21.311 13.1321 21.3604 12.7313 21.3924C12.4861 21.4119 12.2398 21.4158 12.1088 21.4216H12.1091Z" fill="white"/>
<path d="M6.13738 8.18291C5.97787 8.16995 5.84392 8.10333 5.76003 7.95498C5.66893 7.79439 5.66893 7.62984 5.77623 7.48113C5.90549 7.30182 6.04484 7.12899 6.18851 6.96084C6.51185 6.58168 6.87372 6.24178 7.26799 5.9368C7.50708 5.75209 7.77101 5.76757 7.9388 5.97209C8.11019 6.18165 8.06878 6.45386 7.82394 6.64614C7.33136 7.03321 6.89676 7.47573 6.52517 7.97983C6.43011 8.10873 6.30445 8.17715 6.13774 8.18291H6.13738Z" fill="white"/>
<path d="M11.1866 19.6515C10.4542 19.573 9.73698 19.3944 9.05033 19.1006C8.81377 18.9994 8.72159 18.7441 8.81773 18.5147C8.91278 18.2872 9.16843 18.1813 9.41904 18.2818C9.92674 18.4849 10.4485 18.6336 10.9886 18.7171C11.0952 18.7337 11.2028 18.7423 11.3083 18.7632C11.5524 18.8114 11.704 19.0196 11.6749 19.259C11.6464 19.4949 11.4415 19.6634 11.187 19.6518L11.1866 19.6515Z" fill="white"/>
<path d="M19.6299 11.0501C19.6277 11.2853 19.4524 11.4783 19.2234 11.4981C18.9717 11.52 18.7715 11.3641 18.7326 11.1034C18.6584 10.6047 18.545 10.1161 18.3696 9.64299C18.3217 9.51409 18.2663 9.38806 18.217 9.25952C18.1187 9.00387 18.2108 8.75794 18.442 8.65532C18.6739 8.55234 18.9285 8.6474 19.0394 8.89477C19.3397 9.56558 19.528 10.2684 19.627 10.9961C19.6295 11.0138 19.6291 11.0321 19.6302 11.0498L19.6299 11.0501Z" fill="white"/>
</g>
<defs>
<clipPath id="clip0_359_651">
<rect width="24" height="24" fill="white"/>
</clipPath>
</defs>
</svg>
