<svg width="13" height="14" viewBox="0 0 13 14" fill="none" xmlns="http://www.w3.org/2000/svg">
<path d="M9.2747 6.41564C9.14319 6.39918 9.01101 6.44034 8.91153 6.52885C8.81137 6.61804 8.75413 6.74565 8.75413 6.88013V6.89385C8.75413 7.12849 8.92992 7.32815 9.16363 7.35833C10.3717 7.5127 11.2806 8.55488 11.2772 9.7823C11.2738 11.1195 10.1905 12.2104 8.86247 12.2138H8.85634C8.21176 12.2138 7.60535 11.9606 7.14747 11.501C6.68823 11.0399 6.43544 10.4272 6.43544 9.77612L6.4368 9.64919H6.43544V0.474775C6.43544 0.213374 6.22422 0 5.96394 0C5.70365 0 5.49243 0.212688 5.49243 0.474775V9.91746L5.49584 10.0204H5.50129C5.62598 11.7973 7.07729 13.1634 8.85565 13.1634C8.86792 13.1634 8.88019 13.1634 8.89245 13.1634C10.7301 13.1441 12.223 11.6224 12.2202 9.77063C12.2175 8.06707 10.9515 6.6249 9.27538 6.41564H9.2747Z" fill="white"/>
<path d="M7.64154 3.80227C7.74783 4.72849 8.52663 5.42625 9.45397 5.42625H9.45738C9.94592 5.42556 10.4052 5.23071 10.7513 4.87806C11.0967 4.52541 11.2841 4.06024 11.2787 3.56763C11.2698 2.7553 10.7206 2.03627 9.94455 1.81878C9.93024 1.81466 9.90708 1.80986 9.87778 1.80506C9.74083 1.78242 9.60115 1.82153 9.49485 1.91209C9.38856 2.00334 9.32724 2.13576 9.32724 2.2764C9.32724 2.50556 9.4894 2.70247 9.71357 2.74569C9.75377 2.75324 9.76468 2.75735 9.76536 2.75735C10.1217 2.8932 10.35 3.24173 10.335 3.62457C10.3166 4.08906 9.94047 4.46298 9.4785 4.47533C9.02199 4.48699 8.62815 4.14189 8.57773 3.68701V2.16045H8.52322C8.44419 2.00951 8.28679 1.9066 8.10623 1.9066C7.84663 1.9066 7.63472 2.11929 7.63472 2.38138V3.44619C7.63132 3.49559 7.62927 3.54156 7.62927 3.58753C7.62927 3.63624 7.63132 3.68564 7.63541 3.73709L7.64154 3.8009V3.80227Z" fill="white"/>
<path d="M3.76795 2.22906C3.50835 2.22906 3.29645 2.44175 3.29645 2.70384V8.79976C3.29645 9.12429 3.16835 9.42754 2.93464 9.65326C2.70162 9.87899 2.39568 9.99494 2.07271 9.98327C1.46289 9.95926 0.966857 9.45979 0.943691 8.84642C0.921887 8.27696 1.3055 7.77131 1.85672 7.64439C2.07203 7.59499 2.22193 7.40425 2.22193 7.18196C2.22193 7.03651 2.15721 6.90066 2.0441 6.8101C1.93235 6.72022 1.7879 6.6866 1.6489 6.71816C0.676594 6.94046 -0.000680852 7.79738 5.13644e-07 8.80251C0.00136325 9.97778 0.952549 10.9342 2.11973 10.9342C3.20378 10.9342 4.11136 10.1061 4.22651 9.03235H4.23946V2.70384C4.23946 2.44175 4.02824 2.22906 3.76795 2.22906Z" fill="white"/>
</svg>
