<svg width="35" height="37" viewBox="0 0 35 37" fill="none" xmlns="http://www.w3.org/2000/svg">
<path d="M29.9662 31.4323C23.5903 38.7628 11.691 38.9538 5.01782 31.4356C5.71257 31.0273 6.40731 30.6306 7.09056 30.2141C7.29422 30.089 7.36156 30.2437 7.45846 30.3376C8.67385 31.5212 10.0568 32.4562 11.5957 33.1657C16.8416 35.5774 23.2208 34.5008 27.3679 30.4742C27.6816 30.1696 27.877 30.168 28.2137 30.3902C28.7787 30.7639 29.3766 31.0849 29.9662 31.4306V31.4323Z" fill="#E2ECEF"/>
<path d="M1.43416 25.2146C1.15002 24.4968 0.97757 23.7659 0.864243 23.0284C-0.048943 17.1449 1.57048 12.0664 5.78822 7.86855C7.97429 5.69391 10.6169 4.29135 13.6193 3.5769C13.8657 3.51764 13.9264 3.55715 13.9215 3.80737C13.9084 4.4642 13.9018 5.12268 13.9248 5.77787C13.9346 6.05443 13.8295 6.15156 13.5832 6.2207C10.4576 7.108 7.89873 8.85297 5.9771 11.4704C3.29503 15.125 2.5313 19.1911 3.58245 23.5963C3.64486 23.8564 3.62351 23.9816 3.38043 24.1116C2.73168 24.4573 2.09934 24.8343 1.43252 25.2146H1.43416Z" fill="#E2ECEF"/>
<path d="M33.5106 25.2475C32.8142 24.8392 32.1244 24.426 31.4263 24.031C31.1964 23.9009 31.3327 23.7396 31.3656 23.6062C31.694 22.3123 31.855 20.9987 31.8172 19.6652C31.6415 13.3751 27.4106 7.93277 21.3879 6.26023C21.0988 6.17956 21.0035 6.06927 21.0134 5.76966C21.038 5.04533 21.0216 4.321 21.0216 3.59174C30.4672 5.42396 36.6854 15.6222 33.5106 25.2475Z" fill="#E2ECEF"/>
<path d="M6.97729 22.0045C8.78559 22.1576 10.4871 22.2959 12.187 22.4473C12.8013 22.5017 13.0477 22.9297 12.7865 23.491C12.0491 25.073 11.2952 26.6501 10.5528 28.2304C10.4264 28.4988 10.2506 28.6799 9.93857 28.6947C9.62651 28.7078 9.42942 28.5482 9.28653 28.2864C9.0763 27.9029 8.83979 27.5341 8.65092 27.1407C8.52773 26.8855 8.41605 26.8954 8.19596 27.0238C6.22999 28.1728 4.2558 29.3104 2.28489 30.4512C2.07302 30.5746 1.86279 30.6997 1.61314 30.7376C0.926608 30.843 0.322197 30.5104 0.0955431 29.9013C-0.14425 29.2593 0.0741916 28.586 0.673675 28.2272C1.63285 27.6526 2.60516 27.0995 3.57091 26.5365C4.64341 25.911 5.70934 25.2772 6.79005 24.6648C7.03642 24.5249 7.0824 24.4195 6.9198 24.1775C6.70793 23.8614 6.5404 23.5141 6.34824 23.1832C6.18564 22.9033 6.04768 22.6235 6.2497 22.3041C6.45007 21.9848 6.7572 21.9716 6.97565 22.0045H6.97729Z" fill="#E2ECEF"/>
<path d="M26.4597 26.8657C26.192 27.3415 25.9292 27.8041 25.6713 28.2683C25.5219 28.5399 25.3198 28.7161 24.9881 28.693C24.6744 28.6716 24.5068 28.4774 24.382 28.214C23.6462 26.6468 22.9022 25.0829 22.1713 23.5141C21.8987 22.928 22.1418 22.5 22.7757 22.4457C24.4888 22.2975 26.2035 22.1592 27.9165 22.0111C28.2319 21.9831 28.5209 22.0012 28.7098 22.3008C28.902 22.6054 28.7755 22.8721 28.6195 23.142C28.4207 23.4844 28.2483 23.8433 28.0315 24.1725C27.8722 24.4145 27.9165 24.5215 28.1645 24.6631C29.8217 25.608 31.4691 26.5711 33.1197 27.5292C33.4843 27.7415 33.8522 27.9489 34.2152 28.1679C34.974 28.6239 35.2105 29.368 34.8147 30.0396C34.3975 30.7491 33.6338 30.9384 32.8717 30.5055C30.8564 29.3614 28.8461 28.2123 26.8325 27.0649C26.7159 26.9991 26.596 26.9382 26.463 26.8657H26.4597Z" fill="#E2ECEF"/>
<path d="M18.8094 4.93174C18.8094 6.12194 18.8176 7.31214 18.8045 8.50234C18.8012 8.76738 18.8669 8.86122 19.1412 8.8464C19.5764 8.82335 20.0149 8.84146 20.4518 8.83982C20.7409 8.83982 20.9988 8.90566 21.1433 9.18387C21.2862 9.45879 21.2106 9.70572 21.0415 9.94771C20.0412 11.3815 19.0508 12.8203 18.049 14.2525C17.6975 14.7546 17.2557 14.753 16.896 14.2426C15.9007 12.8236 14.9169 11.3947 13.9248 9.9724C13.7475 9.71724 13.6752 9.45385 13.8197 9.16576C13.9659 8.87603 14.2188 8.7822 14.5342 8.79208C14.93 8.8036 15.3275 8.77397 15.7217 8.80195C16.0239 8.82335 16.106 8.74269 16.1043 8.42662C16.0896 6.10054 16.0978 3.77446 16.0945 1.45002C16.0945 0.82282 16.372 0.366822 16.9321 0.114953C17.801 -0.276842 18.7913 0.381638 18.8045 1.35948C18.8209 2.54968 18.8078 3.73989 18.8094 4.93009V4.93174Z" fill="#E2ECEF"/>
<path d="M14.3566 20.0439C14.3583 18.2907 15.7593 16.8947 17.5068 16.9029C19.2593 16.9112 20.6422 18.3154 20.629 20.0719C20.6159 21.8103 19.233 23.1881 17.4986 23.1914C15.7478 23.1947 14.3533 21.7987 14.355 20.0439H14.3566Z" fill="#E2ECEF"/>
</svg>
